<?xml version="1.0" standalone="no"?>
<!DOCTYPE svg PUBLIC "-//W3C//DTD SVG 20010904//EN"
 "http://www.w3.org/TR/2001/REC-SVG-20010904/DTD/svg10.dtd">
<svg version="1.0" xmlns="http://www.w3.org/2000/svg"
 width="700.000000pt" height="700.000000pt" viewBox="0 0 700.000000 700.000000"
 preserveAspectRatio="xMidYMid meet">
<metadata>
Created by potrace 1.11, written by Peter Selinger 2001-2013
</metadata>
<g transform="translate(0.000000,700.000000) scale(0.100000,-0.100000)"
fill="#000000" stroke="none">
<path d="M2632 5692 l-952 -947 0 -1187 0 -1188 310 0 310 0 0 685 0 685 -275
0 c-151 0 -275 3 -275 8 0 4 158 165 350 357 l350 350 350 -350 c193 -192 350
-353 350 -357 0 -5 -121 -8 -270 -8 l-270 0 0 -685 0 -685 355 0 355 0 0 1180
0 1180 -620 0 c-341 0 -620 3 -620 8 0 4 337 345 750 757 l750 750 750 -750
c413 -412 750 -753 750 -757 0 -5 -274 -8 -610 -8 l-610 0 0 -1180 0 -1180
360 0 360 0 0 685 0 685 -275 0 c-151 0 -275 3 -275 8 0 4 158 165 350 357
l350 350 358 -358 357 -357 -278 0 -277 0 0 -685 0 -685 305 0 305 0 0 1189 0
1189 -951 944 c-523 518 -954 944 -957 945 -4 1 -436 -424 -960 -945z"/>
<path d="M1827 1778 c-54 -189 -97 -349 -97 -356 0 -9 11 -12 32 -10 30 3 32
6 56 91 l25 87 128 0 128 0 16 -57 c36 -128 33 -123 72 -123 24 0 34 4 30 13
-2 6 -48 166 -102 355 l-98 342 -46 0 -47 0 -97 -342z m253 -120 c0 -5 -50 -8
-111 -8 -100 0 -110 2 -105 18 3 9 26 91 51 182 25 91 48 172 51 180 5 12 112
-341 114 -372z"/>
<path d="M2500 2104 c-76 -33 -110 -86 -110 -172 0 -105 56 -157 205 -187 98
-20 130 -37 155 -78 36 -59 17 -143 -43 -181 -38 -26 -136 -31 -177 -9 -43 22
-76 71 -85 123 -6 36 -10 40 -36 40 -27 0 -29 -3 -29 -38 0 -51 42 -132 82
-159 70 -47 190 -53 268 -13 72 37 100 87 100 177 0 113 -49 157 -210 193
-110 24 -140 42 -158 96 -33 97 30 166 150 165 93 0 134 -37 145 -130 6 -50 6
-51 41 -51 l34 0 -6 48 c-4 26 -11 61 -17 78 -12 39 -64 88 -108 103 -48 16
-159 13 -201 -5z"/>
<path d="M3003 2098 c3 -7 47 -110 98 -228 l93 -215 6 -120 5 -120 33 -3 32
-3 0 110 0 110 100 232 c55 129 100 237 100 241 0 4 -15 8 -32 8 l-33 0 -79
-193 c-44 -105 -82 -195 -85 -199 -4 -4 -44 82 -90 192 l-84 200 -34 0 c-24 0
-34 -4 -30 -12z"/>
<path d="M3662 1763 l3 -348 180 0 180 0 3 28 3 27 -150 0 -151 0 0 320 0 320
-35 0 -35 0 2 -347z"/>
<path d="M4192 1818 c3 -275 4 -295 24 -328 40 -69 150 -104 260 -81 72 14
111 43 138 100 19 43 21 67 24 324 l4 277 -36 0 -36 0 0 -267 c0 -240 -2 -272
-19 -309 -14 -31 -28 -45 -60 -57 -83 -34 -187 -11 -219 47 -15 27 -17 69 -20
309 l-3 277 -30 0 -30 0 3 -292z"/>
<path d="M4870 1760 l0 -350 30 0 30 0 1 288 0 287 49 -140 c27 -77 73 -206
101 -287 50 -143 52 -148 79 -148 27 0 30 6 74 133 25 72 71 202 101 287 l54
155 0 -288 1 -288 33 3 32 3 3 348 2 347 -49 0 -48 0 -98 -285 c-54 -157 -101
-285 -104 -285 -3 0 -18 35 -33 78 -15 42 -59 170 -98 285 l-72 207 -44 0 -44
0 0 -350z"/>
<path d="M1885 1191 c-50 -23 -78 -53 -107 -116 -21 -46 -23 -64 -23 -220 0
-154 2 -175 23 -227 40 -99 130 -148 244 -135 105 13 167 77 183 190 l7 47
-35 0 c-35 0 -35 -1 -42 -51 -5 -38 -16 -61 -40 -87 -29 -32 -39 -36 -91 -39
-74 -5 -120 17 -152 76 -48 84 -49 349 -2 440 28 56 71 81 140 81 79 0 115
-24 134 -91 9 -29 16 -65 16 -81 0 -26 3 -28 36 -28 l36 0 -7 58 c-7 63 -35
130 -65 157 -50 45 -183 59 -255 26z"/>
<path d="M2453 1199 c-40 -12 -91 -62 -114 -114 -41 -92 -46 -299 -12 -427 35
-131 152 -194 288 -157 61 17 104 55 133 118 24 50 27 70 30 202 6 224 -25
314 -128 367 -48 24 -135 29 -197 11z m202 -91 c19 -20 38 -53 45 -75 17 -60
24 -222 12 -296 -20 -127 -62 -177 -154 -184 -139 -10 -197 99 -186 349 5 89
10 117 31 160 36 73 65 89 151 85 64 -3 70 -5 101 -39z"/>
<path d="M4721 1203 c-13 -3 -45 -26 -70 -51 -66 -66 -76 -108 -76 -312 0
-157 1 -168 26 -221 30 -63 74 -101 134 -118 84 -23 165 -8 221 41 41 36 59
74 66 141 l6 47 -33 0 c-32 0 -33 -2 -44 -58 -16 -83 -62 -122 -143 -122 -96
0 -148 58 -169 190 -14 89 -6 237 17 302 8 25 28 58 45 74 26 24 39 29 98 32
67 4 70 3 105 -29 32 -29 39 -44 49 -101 l11 -68 34 0 34 0 -6 43 c-19 124
-58 186 -133 206 -38 11 -126 12 -172 4z"/>
<path d="M2900 850 l0 -350 30 0 30 0 2 292 3 293 164 -293 163 -292 34 0 34
0 0 350 0 350 -30 0 -30 0 -2 -287 -3 -287 -160 287 -160 287 -37 0 -38 0 0
-350z"/>
<path d="M3500 850 l0 -350 31 0 32 0 -5 291 c-3 206 -1 287 6 276 6 -8 81
-139 166 -291 153 -273 155 -276 187 -276 l33 0 0 350 0 350 -31 0 -31 0 3
-290 c2 -159 1 -286 -2 -282 -4 4 -78 134 -164 290 l-158 282 -33 0 -34 0 0
-350z"/>
<path d="M4090 850 l0 -350 195 0 195 0 0 30 0 30 -165 0 -165 0 0 135 0 135
140 0 140 0 0 30 0 30 -140 0 -140 0 0 125 0 125 165 0 165 0 0 30 0 30 -195
0 -195 0 0 -350z"/>
<path d="M5080 1170 l0 -30 90 0 90 0 0 -320 0 -320 30 0 30 0 0 320 0 320 90
0 90 0 0 30 0 30 -210 0 -210 0 0 -30z"/>
</g>
</svg>
