<svg id="620d7111-4350-4ac7-b9eb-6b0b9fbb53cb" data-name="Layer 1" xmlns="http://www.w3.org/2000/svg" viewBox="0 0 576 576"><title>Artboard 1</title><polygon points="295.49 28.84 137.76 185.54 137.65 381.56 453.21 381.56 453.21 185.54 295.49 28.84" fill="#6988c2"/><polygon points="171.04 186.43 294.56 62.91 418.07 186.43 171.04 186.43" fill="#fff"/><polygon points="331.85 267.68 389.5 210.02 447.16 267.68 331.85 267.68" fill="#fff"/><polygon points="144.11 267.68 201.77 210.02 259.42 267.68 144.11 267.68" fill="#fff"/><rect x="273.43" y="174.48" width="44.11" height="210.81" fill="#fff"/><rect x="377.06" y="262.69" width="24.88" height="122.61" fill="#fff"/><rect x="189.33" y="260.7" width="24.88" height="124.59" fill="#fff"/><path d="M166,401.47l16.65,58.32H176.9L172.75,445H151.66l-4.14,14.8h-5.77l16.65-58.32Zm-13,38.71h18.35l-9.18-32.86Z" fill="#231f20"/><path d="M196.28,417.45v-.74c0-9.62,7.18-15.47,18.13-15.47,12.88,0,18.21,6.66,18.21,18.58v1.78h-5.33c0-11-3.85-15.54-12.66-15.54h-.52c-7,0-12.36,3.77-12.36,10v.59c0,6.14,3.18,9.77,13.76,11.25,12.58,1.7,17.76,6.81,17.76,15.69v.74c0,10.21-7.33,16.28-18.87,16.28-12.21,0-18.8-7-18.8-18.87V441h5.33c0,10.14,5.48,14.8,13.25,14.8h.52c7.84,0,13.1-4.07,13.1-11.1V444c0-6.81-4.22-10.21-14.28-11.62C200.94,430.7,196.28,425.08,196.28,417.45Z" fill="#231f20"/><path d="M269,459.78H263.7V442.32l-17.17-40.26h5.77l14.06,33.67,14-33.67h5.85L269,442.32Z" fill="#231f20"/><path d="M301.44,459.78V402.06h5.33V455h24.42v4.81Z" fill="#231f20"/><path d="M344.43,441.87V402.06h5.33V441.5c0,11,4.29,14.28,13.17,14.28s13.25-3.33,13.25-14.28V402.06h5.33v39.81c0,13.91-6.29,18.72-18.58,18.72S344.43,455.79,344.43,441.87Z" fill="#231f20"/><path d="M427,459.78H422.2l-16.8-48.47.3,12.88v35.6h-5.33V402.06h7.47l16.8,48.55,16.8-48.55h7.47v57.72h-5.33v-35.6l.22-12.88Z" fill="#231f20"/><path d="M163.35,530.79h.52c8.66,0,12.28-5.25,12.28-14.8h5.48v.74c0,12.14-5.92,18.87-18.21,18.87-13.25,0-19.61-8.21-19.61-28.2v-3c0-20,6.36-28.2,19.61-28.2,12.29,0,18.21,6.73,18.21,19.76v2.07h-5.48c0-11.91-3.63-17-12.28-17h-.52c-9.62,0-14.06,7-14.06,23.39v3C149.29,523.83,153.66,530.79,163.35,530.79Z" fill="#231f20"/><path d="M189.55,507.4v-3c0-20,6.59-28.2,19.76-28.2s19.83,8.21,19.83,28.2v3c0,20-6.59,28.2-19.83,28.2S189.55,527.38,189.55,507.4Zm20.06,23.39c9.69,0,14.06-7,14.06-23.39v-3c0-16.43-4.37-23.39-14.06-23.39h-.52c-9.69,0-14.06,7-14.06,23.39v3c0,16.43,4.37,23.39,14.06,23.39Z" fill="#231f20"/><path d="M276.65,534.78h-5.77l-27.31-48.7.3,13.39v35.3h-5V477.06h5.77l27.23,48.7-.22-13.4v-35.3h5Z" fill="#231f20"/><path d="M325.41,534.78h-5.77l-27.31-48.7.3,13.39v35.3h-5V477.06h5.77l27.23,48.7-.22-13.4v-35.3h5Z" fill="#231f20"/><path d="M368.56,477.06v4.81H341.69V503h23.16v4.74H341.69V530h26.86v4.81H336.36V477.06Z" fill="#231f20"/><path d="M395.27,530.79h.52c8.66,0,12.29-5.25,12.29-14.8h5.48v.74c0,12.14-5.92,18.87-18.21,18.87-13.25,0-19.61-8.21-19.61-28.2v-3c0-20,6.36-28.2,19.61-28.2,12.28,0,18.21,6.73,18.21,19.76v2.07h-5.48c0-11.91-3.63-17-12.29-17h-.52c-9.62,0-14.06,7-14.06,23.39v3C381.21,523.83,385.57,530.79,395.27,530.79Z" fill="#231f20"/><path d="M438,534.78h-5.33V481.87H418.06v-4.81h34.71v4.81H438Z" fill="#231f20"/></svg>