<svg xmlns="http://www.w3.org/2000/svg" width="488" height="448" viewBox="0 0 488 448">
    <g fill="none" fill-rule="evenodd">
        <g font-size="55">
            <text fill="#5073B3" font-family="OpenSans-Extrabold, Open Sans" font-weight="600" transform="translate(.12 372.18)">
                <tspan x="0" y="59">ASYLUM</tspan>
            </text>
            <text fill="#1D1F23" font-family="OpenSans, Open Sans" transform="translate(.12 372.18)">
                <tspan x="230.36" y="59">CONNE</tspan>
            </text>
            <text fill="#1D1F23" font-family="OpenSans, Open Sans" transform="translate(.12 372.18)">
                <tspan x="418.98" y="59">C</tspan>
            </text>
            <text fill="#1D1F23" font-family="OpenSans, Open Sans" transform="translate(.12 372.18)">
                <tspan x="455.01" y="59">T</tspan>
            </text>
        </g>
        <path fill="#ED2A5B" d="M242.17 0l51.25 50.92"/>
        <path fill="#EF4440" d="M293.42 50.92l51.26 50.92"/>
        <path fill="#F47B46" d="M344.68 101.84l51.25 50.93"/>
        <path fill="#F9E74D" d="M84.41 203.69l.03-46.99 3.96-3.94M395.93 152.76l3.96 3.94v46.99"/>
        <path fill="#4BB749" d="M399.89 203.69v50.92M84.38 254.61l.03-50.92"/>
        <path fill="#1BBAED" d="M84.35 305.53l.03-50.92M399.89 254.61v50.92"/>
        <path fill="#992120" d="M223.88 52.14l17.23-17.26 17.23 17.26h36.12L242.06 0l-52.4 52.14z"/>
        <path fill="#CC4847" d="M309 101.84h35.68l-51.26-50.92h-35.34zM224.38 50.92h-33.47l-51.25 50.92h33.8z"/>
        <path fill="#F26D52" d="M359.93 152.76h36l-51.25-50.92H309zM173.46 101.84h-33.8L88.4 152.76h34.14z"/>
        <path fill="#FFD147" d="M148.45 181.18l22.5 22.51h49.16v-46.11H117.72l4.82-4.82H88.4l-3.96 3.94-.03 46.99h41.53zM364.74 157.58H264.22v46.11h49.45l22.51-22.51 22.51 22.51h41.2V156.7l-3.96-3.94h-36z"/>
        <path fill="#0AB68A" d="M323.74 254.61v-15.78h-45.21l35.14-35.14h-49.45v50.92zM136 238.83H90.79l35.15-35.14H84.41l-.03 50.92H136zM393.84 238.83h-45.22v15.78h51.27v-50.92h-41.2zM160.88 238.83v15.78h59.23v-50.92h-49.16l35.15 35.14z"/>
        <path fill="#22BCD7" d="M136 254.61H84.38l-.03 50.92H136zM160.88 254.61h59.23v50.92h-59.23zM264.22 254.61h59.52v50.92h-59.52zM348.62 254.61h51.27v50.92h-51.27z"/>
        <path fill="#5073B3" d="M160.88 305.53h59.23v47.18h-59.23zM264.22 305.53h59.52v47.18h-59.52zM84.35 305.53l-.02 47.18H136v-47.18zM348.62 305.53h51.27v47.18h-51.27z"/>
        <path fill="#FFF" d="M241.23 34.07l-16.85 16.85h33.7zM309 101.84l-50.92-50.92h-33.7l-50.92 50.92zM122.54 152.76h97.57v-7.12h44.11v7.12h95.71L309 101.84H173.46zM264.22 157.58h100.52l-4.81-4.82h-95.71zM122.54 152.76l-4.82 4.82h102.39v-4.82zM336.18 181.18l-22.51 22.51h45.02zM323.74 238.83v-4.98h24.88v4.98h45.22l-35.15-35.14h-45.02l-35.14 35.14zM148.45 181.18l-22.51 22.51h45.01zM160.88 231.86v6.97h45.22l-35.15-35.14h-45.01l-35.15 35.14H136v-6.97zM220.11 157.58h44.11v46.1h-44.11zM220.11 203.69h44.11v50.92h-44.11zM220.11 254.61h44.11v50.92h-44.11z"/>
        <path fill="#FFF" d="M220.11 305.53h44.11v47.18h-44.11zM220.11 145.64h44.11v7.12h-44.11zM220.11 152.77h44.11v4.82h-44.11zM323.74 238.83h24.88v15.77h-24.88zM323.74 254.61h24.88v50.92h-24.88z"/>
        <path fill="#FFF" d="M323.74 305.53h24.88v47.18h-24.88zM323.74 233.85h24.88v4.99h-24.88zM136 238.83h24.88v15.77H136zM136 254.61h24.88v50.92H136z"/>
        <path fill="#FFF" d="M136 305.53h24.88v47.18H136zM136 231.86h24.88v6.97H136z"/>
    </g>
</svg>
