<svg width="24" height="24" viewBox="0 0 24 24" fill="none" xmlns="http://www.w3.org/2000/svg">
<mask id="mask0" mask-type="alpha" maskUnits="userSpaceOnUse" x="0" y="0" width="24" height="24">
<path fill-rule="evenodd" clip-rule="evenodd" d="M12.4745 10.6581L11.0891 9.30264L11.1055 9.28644C12.0545 8.23882 12.7309 7.03461 13.1291 5.76019H14.7273V4.68017H10.9091V3.60016H9.81818V4.68017H6V5.75479H12.0927C11.7273 6.797 11.1491 7.78522 10.3636 8.64923C9.85636 8.09302 9.43636 7.48281 9.10364 6.8402H8.01273C8.41091 7.72042 8.95636 8.55203 9.63818 9.30264L6.86182 12.0135L7.63636 12.7803L10.3636 10.0803L12.06 11.7597L12.4745 10.6581ZM15.5455 7.91984H14.4545L12 14.3999H13.0909L13.7018 12.7799H16.2927L16.9091 14.3999H18L15.5455 7.91984ZM14.1164 11.7007L15 9.36251L15.8836 11.7007H14.1164Z" fill="#5073B3"/>
<path fill-rule="evenodd" clip-rule="evenodd" d="M21.6 0H2.4C1.08 0 0 1.08 0 2.4V24L4.8 19.2H21.6C22.92 19.2 24 18.12 24 16.8V2.4C24 1.08 22.92 0 21.6 0ZM21.6 16.7998H4.8L2.4 19.1998V2.39983H21.6V16.7998Z" fill="#5073B3"/>
</mask>
<g mask="url(#mask0)">
<rect x="-7" y="-8" width="34" height="35" fill="#5073B3"/>
</g>
</svg>
